<?xml version="1.0" encoding="UTF-8"?>
<svg id="Layer_1" xmlns="http://www.w3.org/2000/svg" version="1.1" viewBox="0 0 384 384">
  <!-- Generator: Adobe Illustrator 29.3.1, SVG Export Plug-In . SVG Version: 2.1.0 Build 151)  -->
  <defs>
    <style>
      .st0 {
        fill: #FFFFF0;
      }
    </style>
  </defs>
  <path class="st0" d="M241.39,351.11c-69.44,5.15-162.93-17.57-214.75-65.76-4.73-4.39-22.28-23.14-24.17-27.93S1.93,246.99,0,242.02c2.9-9.36-1.29-31.75,2.13-39.26.68-1.47,9.8-10.06,11.53-10.81,12.48-5.49,22.34,17.75,28.59,24.25,17.51,18.29,61.62,39.28,86.02,46.5,48.09,14.25,160.44,25.56,194.71-19.06,12.56-16.36,14.11-46.18,24.75-63.1,1.01-1.61,12.96-13.82,14.03-14.31,4-1.85,13.7,7.79,14.55,10.77s-.1,6.58.64,9.78c1.33,5.73,7.04,22.72,7.06,26.92.02,7.53-12.17,56.44-15.25,65.3-18.13,52.34-78.22,68.5-127.34,72.16l-.02-.04Z"/>
  <path class="st0" d="M117.44,141.44c-11.69,2.68-21.17-7.49-22.64-18.41-3.04-22.48-4.19-48.37,4.25-69.89.64-1.61,7.61-14.95,8.21-15.59,4.25-4.39,12.46-.34,14.57,4.89,1.35,3.38.72,6.7,1.93,9.98,1.05,2.82,4.93,5.75,5.98,9.03,5.03,15.7-.16,32.28-2.25,46.93-1.41,9.9,1.65,30.39-10.08,33.08l.02-.02Z"/>
  <path class="st0" d="M296.14,128.06c-9.3,2.76-19.3-2.07-22.36-11.25-5.78-17.25-4-58.74,4.91-74.65,2.58-4.61,10.71-14.83,16.32-9.08.7.72,7.65,16.18,8.43,18.37,6.1,17.22,2.54,29.68,1.77,46.68-.26,5.76,2.13,12.15.62,18.79-.68,2.96-6.9,10.34-9.66,11.17l-.02-.02Z"/>
</svg>